<svg width="24" height="24" viewBox="0 0 24 24" fill="none" xmlns="http://www.w3.org/2000/svg">
<path fill-rule="evenodd" clip-rule="evenodd" d="M6 2C6 1.44772 6.44772 1 7 1C7.55228 1 8 1.44772 8 2V3H11V2C11 1.44772 11.4477 1 12 1C12.5523 1 13 1.44772 13 2V3H16V2C16 1.44772 16.4477 1 17 1C17.5523 1 18 1.44772 18 2V3C20.2091 3 22 4.79086 22 7V10.9647C22 10.9765 21.9998 10.9883 21.9994 11L22 17C22 19.2091 20.2091 21 18 21H6C3.79086 21 2 19.2091 2 17V7C2 4.79086 3.79086 3 6 3V2ZM18 19C19.1046 19 20 18.1046 20 17V11C19.9996 10.9883 20 10.9765 20 10.9647V7C20 5.89543 19.1046 5 18 5V6C18 6.55228 17.5523 7 17 7C16.4477 7 16 6.55228 16 6V5H13V6C13 6.55228 12.5523 7 12 7C11.4477 7 11 6.55228 11 6V5H8V6C8 6.55228 7.55228 7 7 7C6.44772 7 6 6.55228 6 6V5C4.89543 5 4 5.89543 4 7V17C4 18.1046 4.89543 19 6 19H18Z" fill="#0045AD"/>
</svg>
