<svg width="24" height="24" viewBox="0 0 24 24" fill="none" xmlns="http://www.w3.org/2000/svg">
<path fill-rule="evenodd" clip-rule="evenodd" d="M14.4332 15.4175C13.226 16.4065 11.6823 17 10 17C6.13401 17 3 13.866 3 10C3 6.13401 6.13401 3 10 3C13.866 3 17 6.13401 17 10C17 11.4619 16.5518 12.8192 15.7854 13.9419L20.4604 18.5687C20.853 18.9572 20.8562 19.5904 20.4677 19.9829C20.0792 20.3754 19.4461 20.3787 19.0535 19.9902L14.4332 15.4175ZM4.99909 10C4.99909 12.7619 7.23807 15.0009 10 15.0009C12.7619 15.0009 15.0009 12.7619 15.0009 10C15.0009 7.23807 12.7619 4.99909 10 4.99909C7.23807 4.99909 4.99909 7.23807 4.99909 10Z" fill="#002C55"/>
</svg>
