<svg width="24" height="24" viewBox="0 0 24 24" fill="none" xmlns="http://www.w3.org/2000/svg">
<g clip-path="url(#clip0_204_3654)">
<circle cx="12" cy="12" r="12" fill="#D4E6FF"/>
<path fill-rule="evenodd" clip-rule="evenodd" d="M11.9967 5.00002C11.0395 5.00423 8.91865 5.81083 8.82003 8.6666C8.78032 9.81664 9.34736 12.2512 12.0003 12.4284C14.6272 12.2747 15.2196 9.81655 15.1799 8.6666C15.0811 5.8043 12.9508 5.01645 11.9967 5.00002ZM12.1199 18.0003H11.8801H6.84315C5.82521 18.0003 5 17.1751 5 16.1572C5 15.2627 5.66403 13.1756 7.9697 12.5341C8.48617 12.4076 9.44532 12.3805 9.62978 12.5341C9.93412 12.7876 11.1238 13.4467 12.1199 13.4196C13.0606 13.4647 14.0659 12.7876 14.3702 12.5341C14.5547 12.3805 15.5138 12.4076 16.0303 12.5341C18.336 13.1756 19 15.2627 19 16.1572C19 17.1751 18.1748 18.0003 17.1568 18.0003H12.1199Z" fill="#0045AD"/>
</g>
<defs>
<clipPath id="clip0_204_3654">
<rect width="24" height="24" fill="white"/>
</clipPath>
</defs>
</svg>
