<svg width="32" height="32" viewBox="0 0 32 32" fill="none" xmlns="http://www.w3.org/2000/svg">
<path fill-rule="evenodd" clip-rule="evenodd" d="M2 9C2 8.44772 2.44772 8 3 8H29C29.5523 8 30 8.44772 30 9C30 9.55228 29.5523 10 29 10H3C2.44771 10 2 9.55228 2 9ZM2 16C2 15.4477 2.44772 15 3 15H29C29.5523 15 30 15.4477 30 16C30 16.5523 29.5523 17 29 17H3C2.44771 17 2 16.5523 2 16ZM3 22C2.44772 22 2 22.4477 2 23C2 23.5523 2.44771 24 3 24H29C29.5523 24 30 23.5523 30 23C30 22.4477 29.5523 22 29 22H3Z" fill="#0045AD"/>
</svg>
