<svg width="24" height="24" viewBox="0 0 24 24" fill="none" xmlns="http://www.w3.org/2000/svg">
<g clip-path="url(#clip0_113_733)">
<path fill-rule="evenodd" clip-rule="evenodd" d="M20 12C20 16.4183 16.4183 20 12 20C7.58172 20 4 16.4183 4 12C4 7.58172 7.58172 4 12 4C16.4183 4 20 7.58172 20 12ZM22 12C22 17.5228 17.5228 22 12 22C6.47715 22 2 17.5228 2 12C2 6.47715 6.47715 2 12 2C17.5228 2 22 6.47715 22 12ZM10.8232 7.8835C10.8232 7.23376 11.35 6.70703 11.9997 6.70703C12.6495 6.70703 13.1762 7.23376 13.1762 7.8835V11.6697L15.8932 11.6444C16.5336 11.6384 17.0572 12.1527 17.0626 12.7931C17.0681 13.4335 16.5534 13.9574 15.9131 13.9634L12.0027 13.9998C11.5493 14.004 11.1544 13.7475 10.9606 13.37C10.8749 13.2514 10.8232 13.1048 10.8232 12.9415V7.8835Z" fill="#0045AD"/>
</g>
<defs>
<clipPath id="clip0_113_733">
<rect width="24" height="24" fill="white"/>
</clipPath>
</defs>
</svg>
