<svg width="24" height="24" viewBox="0 0 24 24" fill="none" xmlns="http://www.w3.org/2000/svg">
<path fill-rule="evenodd" clip-rule="evenodd" d="M15.1002 11.5C14.2117 11.2073 12.9546 11 11.5 11C10.0454 11 8.78833 11.2073 7.89977 11.5C8.78833 11.7927 10.0454 12 11.5 12C12.9546 12 14.2117 11.7927 15.1002 11.5ZM11.5 14C13.2465 14 14.8321 13.7351 16 13.304V15.7397C15.9207 15.7895 15.8098 15.85 15.6589 15.915C15.0519 16.1766 13.824 16.5 11.5 16.5C9.17596 16.5 7.94806 16.1766 7.3411 15.915C7.1902 15.85 7.0793 15.7895 7 15.7397V13.304C8.16789 13.7351 9.75351 14 11.5 14ZM18 16V11.5C18 10.1193 15.0899 9 11.5 9C7.91015 9 5 10.1193 5 11.5V16V16.1667V16.4093V20.6667V20.9093L5.1112 21.125L6 20.6667C5.1112 21.125 5.11184 21.1262 5.11248 21.1274L5.1138 21.13L5.11649 21.1351L5.12218 21.1457L5.13478 21.1682C5.14373 21.1838 5.15379 21.2005 5.16507 21.2183C5.18765 21.2538 5.215 21.2932 5.24793 21.3358C5.31395 21.4211 5.40128 21.5177 5.51567 21.6201C5.74502 21.8254 6.07576 22.0475 6.54953 22.2517C7.48944 22.6568 9.01154 23 11.5 23C13.9885 23 15.5106 22.6568 16.4505 22.2517C16.9242 22.0475 17.255 21.8254 17.4843 21.6201C17.5987 21.5177 17.686 21.4211 17.7521 21.3358C17.785 21.2932 17.8123 21.2538 17.8349 21.2183C17.8462 21.2005 17.8563 21.1838 17.8652 21.1682L17.8778 21.1457L17.8835 21.1351L17.8862 21.13L17.8875 21.1274C17.8882 21.1262 17.8888 21.125 17 20.6667L17.8888 21.125L18 20.9093V20.6667V16.4093V16.1667V16ZM16 17.9244C15.0451 18.2497 13.6249 18.5 11.5 18.5C9.37513 18.5 7.95485 18.2497 7 17.9244V20.2397C7.0793 20.2895 7.1902 20.35 7.3411 20.415C7.94806 20.6766 9.17596 21 11.5 21C13.824 21 15.0519 20.6766 15.6589 20.415C15.8098 20.35 15.9207 20.2895 16 20.2397V17.9244Z" fill="#0045AD"/>
<path d="M8.21017 7.91667L13.0712 2.08333H14.7898L9.92881 7.91667H8.21017ZM8.89153 5.25C8.5322 5.25 8.21017 5.18889 7.92542 5.06667C7.64068 4.93889 7.41356 4.75278 7.24407 4.50833C7.08136 4.26389 7 3.96944 7 3.625C7 3.28056 7.08136 2.98889 7.24407 2.75C7.41356 2.50556 7.64068 2.31944 7.92542 2.19167C8.21017 2.06389 8.5322 2 8.89153 2C9.25085 2 9.57288 2.06389 9.85763 2.19167C10.1424 2.31944 10.3661 2.50556 10.5288 2.75C10.6983 2.98889 10.7831 3.28056 10.7831 3.625C10.7831 3.96944 10.6983 4.26389 10.5288 4.50833C10.3661 4.75278 10.1424 4.93889 9.85763 5.06667C9.57288 5.18889 9.25085 5.25 8.89153 5.25ZM8.89153 4.35C9.00678 4.35 9.10847 4.3 9.19661 4.2C9.29153 4.09444 9.33898 3.90278 9.33898 3.625C9.33898 3.34722 9.29153 3.15833 9.19661 3.05833C9.10847 2.95278 9.00678 2.9 8.89153 2.9C8.78305 2.9 8.68136 2.95278 8.58644 3.05833C8.49153 3.15833 8.44407 3.34722 8.44407 3.625C8.44407 3.90278 8.49153 4.09444 8.58644 4.2C8.68136 4.3 8.78305 4.35 8.89153 4.35ZM14.1085 8C13.7492 8 13.4271 7.93889 13.1424 7.81667C12.8576 7.68889 12.6305 7.50278 12.461 7.25833C12.2983 7.01389 12.2169 6.71944 12.2169 6.375C12.2169 6.03056 12.2983 5.73889 12.461 5.5C12.6305 5.25556 12.8576 5.06944 13.1424 4.94167C13.4271 4.81389 13.7492 4.75 14.1085 4.75C14.4678 4.75 14.7898 4.81389 15.0746 4.94167C15.3593 5.06944 15.5831 5.25556 15.7458 5.5C15.9153 5.73889 16 6.03056 16 6.375C16 6.71944 15.9153 7.01389 15.7458 7.25833C15.5831 7.50278 15.3593 7.68889 15.0746 7.81667C14.7898 7.93889 14.4678 8 14.1085 8ZM14.1085 7.1C14.2237 7.1 14.3254 7.05 14.4136 6.95C14.5085 6.84444 14.5559 6.65278 14.5559 6.375C14.5559 6.09722 14.5085 5.90833 14.4136 5.80833C14.3254 5.70278 14.2237 5.65 14.1085 5.65C14 5.65 13.8983 5.70278 13.8034 5.80833C13.7085 5.90833 13.661 6.09722 13.661 6.375C13.661 6.65278 13.7085 6.84444 13.8034 6.95C13.8983 7.05 14 7.1 14.1085 7.1Z" fill="#0045AD"/>
</svg>
