<svg width="24" height="24" viewBox="0 0 24 24" fill="none" xmlns="http://www.w3.org/2000/svg">
<path d="M8 12.375L11.2727 15L17 9" stroke="#018700" stroke-width="2"/>
<mask id="path-2-inside-1_114_371" fill="white">
<path d="M22 12C22 17.5228 17.5228 22 12 22C6.47715 22 2 17.5228 2 12C2 6.47715 6.47715 2 12 2C17.5228 2 22 6.47715 22 12ZM4.13665 12C4.13665 16.3428 7.65719 19.8633 12 19.8633C16.3428 19.8633 19.8633 16.3428 19.8633 12C19.8633 7.65719 16.3428 4.13665 12 4.13665C7.65719 4.13665 4.13665 7.65719 4.13665 12Z"/>
</mask>
<path d="M22 12C22 17.5228 17.5228 22 12 22C6.47715 22 2 17.5228 2 12C2 6.47715 6.47715 2 12 2C17.5228 2 22 6.47715 22 12ZM4.13665 12C4.13665 16.3428 7.65719 19.8633 12 19.8633C16.3428 19.8633 19.8633 16.3428 19.8633 12C19.8633 7.65719 16.3428 4.13665 12 4.13665C7.65719 4.13665 4.13665 7.65719 4.13665 12Z" stroke="#018700" stroke-width="4" mask="url(#path-2-inside-1_114_371)"/>
</svg>
