<svg width="24" height="24" viewBox="0 0 24 24" fill="none" xmlns="http://www.w3.org/2000/svg">
<g id="Control">
<g id="Union">
<path d="M12.0003 3.44036C13.4512 3.44042 14.8466 3.97894 15.8982 4.94461C15.9773 5.01916 16.1039 5.01822 16.1819 4.9425L16.9388 4.20461C16.9783 4.1662 17.0003 4.11418 17 4.06005C16.9997 4.00593 16.977 3.95416 16.9371 3.9162C14.1771 1.36127 9.82299 1.36127 7.06304 3.9162C7.02306 3.95413 7.00037 4.00588 7 4.06001C6.99964 4.11414 7.02161 4.16618 7.06107 4.20461L7.81821 4.9425C7.89615 5.01834 8.02281 5.01928 8.10195 4.94461C9.15362 3.97888 10.5492 3.44036 12.0003 3.44036Z" fill="#0045AD"/>
<path d="M12 16C13.1046 16 14 15.1046 14 14C14 12.8954 13.1046 12 12 12C10.8954 12 10 12.8954 10 14C10 15.1046 10.8954 16 12 16Z" fill="#0045AD"/>
<path fill-rule="evenodd" clip-rule="evenodd" d="M6 14C6 10.6863 8.68629 8 12 8C15.3137 8 18 10.6863 18 14V17C18 20.3137 15.3137 23 12 23C8.68629 23 6 20.3137 6 17V14ZM16 14V17C16 19.2091 14.2091 21 12 21C9.79086 21 8 19.2091 8 17V14C8 11.7909 9.79086 10 12 10C14.2091 10 16 11.7909 16 14Z" fill="#0045AD"/>
<path d="M13.9858 6.95302C13.4416 6.50326 12.7335 6.25421 11.9993 6.25425C11.2655 6.25452 10.5581 6.50356 10.0142 6.95302C9.94055 7.01685 9.82459 7.01547 9.75283 6.9499L9.05668 6.30781C9.01994 6.27418 8.99952 6.2285 9.00001 6.18101C9.0005 6.13352 9.02186 6.08819 9.0593 6.0552C10.7167 4.64827 13.2833 4.64827 14.9407 6.0552C14.9781 6.08819 14.9995 6.13349 15 6.18097C15.0005 6.22845 14.9802 6.27414 14.9435 6.30781L14.2471 6.9499C14.1754 7.01547 14.0594 7.01685 13.9858 6.95302Z" fill="#0045AD"/>
</g>
</g>
</svg>
