<svg width="24" height="24" viewBox="0 0 24 24" fill="none" xmlns="http://www.w3.org/2000/svg">
<path fill-rule="evenodd" clip-rule="evenodd" d="M7 1C6.44772 1 6 1.44772 6 2V3C3.79086 3 2 4.79086 2 7V17C2 19.2091 3.79086 21 6 21H10C10.5523 21 11 20.5523 11 20C11 19.4477 10.5523 19 10 19H6C4.89543 19 4 18.1046 4 17V7C4 5.89543 4.89543 5 6 5V6C6 6.55228 6.44772 7 7 7C7.55228 7 8 6.55228 8 6V5H11V6C11 6.55228 11.4477 7 12 7C12.5523 7 13 6.55228 13 6V5H16V6C16 6.55228 16.4477 7 17 7C17.5523 7 18 6.55228 18 6V5C19.1046 5 20 5.89543 20 7V9.5C20 10.0523 20.4477 10.5 21 10.5C21.5523 10.5 22 10.0523 22 9.5V7C22 4.79086 20.2091 3 18 3V2C18 1.44772 17.5523 1 17 1C16.4477 1 16 1.44772 16 2V3H13V2C13 1.44772 12.5523 1 12 1C11.4477 1 11 1.44772 11 2V3H8V2C8 1.44772 7.55228 1 7 1Z" fill="#0045AD"/>
<path d="M21.8299 20.2007L22.9608 18.2993C23.0335 18.1814 23.0012 18.0321 22.8962 17.9457L21.7006 17.0343C21.7248 16.8614 21.741 16.6807 21.741 16.5C21.741 16.3193 21.7248 16.1386 21.7006 15.9579L22.8962 15.0464C23.0012 14.96 23.0335 14.8107 22.9608 14.6929L21.8299 12.7914C21.7572 12.6736 21.6117 12.6264 21.4825 12.6736L20.0769 13.2236C19.7861 13.0036 19.4711 12.8229 19.1237 12.6814L18.9137 11.2279C18.8894 11.1021 18.7683 11 18.6309 11H16.3691C16.2317 11 16.1106 11.1021 16.0863 11.2357L15.8763 12.6893C15.537 12.8307 15.2139 13.0114 14.9231 13.2314L13.5175 12.6814C13.3883 12.6343 13.2428 12.6814 13.1701 12.7993L12.0392 14.7007C11.9665 14.8186 11.9988 14.9679 12.1038 15.0543L13.2994 15.9657C13.2752 16.1386 13.259 16.3193 13.259 16.5C13.259 16.6807 13.2752 16.8614 13.2994 17.0421L12.1038 17.9536C11.9988 18.04 11.9665 18.1893 12.0392 18.3071L13.1701 20.2086C13.2428 20.3264 13.3883 20.3736 13.5175 20.3264L14.9231 19.7764C15.2139 19.9964 15.5289 20.1771 15.8763 20.3186L16.0863 21.7721C16.1106 21.8979 16.2317 22 16.3691 22H18.6309C18.7683 22 18.8894 21.8979 18.9137 21.7643L19.1237 20.3107C19.463 20.1693 19.7861 19.9886 20.0769 19.7686L21.4825 20.3186C21.6117 20.3657 21.7572 20.3186 21.8299 20.2007ZM17.5 18.0714C16.6114 18.0714 15.8844 17.3643 15.8844 16.5C15.8844 15.6357 16.6114 14.9286 17.5 14.9286C18.3886 14.9286 19.1156 15.6357 19.1156 16.5C19.1156 17.3643 18.3886 18.0714 17.5 18.0714Z" fill="#0045AD"/>
</svg>
