<svg width="24" height="24" viewBox="0 0 24 24" fill="none" xmlns="http://www.w3.org/2000/svg">
<mask id="path-1-inside-1_79_435" fill="white">
<path d="M22 12C22 17.5228 17.5228 22 12 22C6.47715 22 2 17.5228 2 12C2 6.47715 6.47715 2 12 2C17.5228 2 22 6.47715 22 12ZM4.13665 12C4.13665 16.3428 7.65719 19.8633 12 19.8633C16.3428 19.8633 19.8633 16.3428 19.8633 12C19.8633 7.65719 16.3428 4.13665 12 4.13665C7.65719 4.13665 4.13665 7.65719 4.13665 12Z"/>
</mask>
<path d="M22 12C22 17.5228 17.5228 22 12 22C6.47715 22 2 17.5228 2 12C2 6.47715 6.47715 2 12 2C17.5228 2 22 6.47715 22 12ZM4.13665 12C4.13665 16.3428 7.65719 19.8633 12 19.8633C16.3428 19.8633 19.8633 16.3428 19.8633 12C19.8633 7.65719 16.3428 4.13665 12 4.13665C7.65719 4.13665 4.13665 7.65719 4.13665 12Z" stroke="#0045AD" stroke-width="4" mask="url(#path-1-inside-1_79_435)"/>
<path d="M11.7481 17V7H12.3556V17H11.7481ZM13.3593 10.3008C13.3296 9.98568 13.2025 9.74089 12.9778 9.56641C12.7531 9.39193 12.4481 9.30469 12.063 9.30469C11.8012 9.30469 11.5802 9.34375 11.4 9.42188C11.2198 9.4974 11.0815 9.60286 10.9852 9.73828C10.8914 9.8737 10.8444 10.0273 10.8444 10.1992C10.8395 10.3424 10.8679 10.4674 10.9296 10.5742C10.9938 10.681 11.0815 10.7734 11.1926 10.8516C11.3037 10.9271 11.4321 10.9935 11.5778 11.0508C11.7235 11.1055 11.879 11.1523 12.0444 11.1914L12.7259 11.3633C13.0568 11.4414 13.3605 11.5456 13.637 11.6758C13.9136 11.806 14.1531 11.9661 14.3556 12.1562C14.558 12.3464 14.7148 12.5703 14.8259 12.8281C14.9395 13.0859 14.9975 13.3815 15 13.7148C14.9975 14.2044 14.879 14.6289 14.6444 14.9883C14.4123 15.3451 14.0765 15.6224 13.637 15.8203C13.2 16.0156 12.6728 16.1133 12.0556 16.1133C11.4432 16.1133 10.9099 16.0143 10.4556 15.8164C10.0037 15.6185 9.65062 15.3255 9.3963 14.9375C9.14444 14.5469 9.01235 14.0638 9 13.4883H10.5519C10.5691 13.7565 10.642 13.9805 10.7704 14.1602C10.9012 14.3372 11.0753 14.4714 11.2926 14.5625C11.5123 14.651 11.7605 14.6953 12.037 14.6953C12.3086 14.6953 12.5444 14.6536 12.7444 14.5703C12.9469 14.487 13.1037 14.3711 13.2148 14.2227C13.3259 14.0742 13.3815 13.9036 13.3815 13.7109C13.3815 13.5312 13.3309 13.3802 13.2296 13.2578C13.1309 13.1354 12.9852 13.0312 12.7926 12.9453C12.6025 12.8594 12.3691 12.7812 12.0926 12.7109L11.2667 12.4922C10.6272 12.3281 10.1222 12.0716 9.75185 11.7227C9.38148 11.3737 9.19753 10.9036 9.2 10.3125C9.19753 9.82812 9.31975 9.40495 9.56667 9.04297C9.81605 8.68099 10.158 8.39844 10.5926 8.19531C11.0272 7.99219 11.521 7.89063 12.0741 7.89063C12.637 7.89063 13.1284 7.99219 13.5481 8.19531C13.9704 8.39844 14.2988 8.68099 14.5333 9.04297C14.7679 9.40495 14.8889 9.82422 14.8963 10.3008H13.3593Z" fill="#0045AD"/>
</svg>
