<svg width="24" height="24" viewBox="0 0 24 24" fill="none" xmlns="http://www.w3.org/2000/svg">
<path d="M3 2H22V4H3V2Z" fill="#0045AD"/>
<path d="M3 20H22V22H3V20Z" fill="#0045AD"/>
<path d="M3 2H5V22H3V2Z" fill="#0045AD"/>
<path d="M20 2H22V22H20V2Z" fill="#0045AD"/>
<path d="M7 7H11V9H7V7Z" fill="#0045AD"/>
<path d="M7 9H9V15H7V9Z" fill="#0045AD"/>
<path d="M7 15H11V17H7V15Z" fill="#0045AD"/>
<path d="M18 7H14V9H18V7Z" fill="#0045AD"/>
<path d="M18 9H16V15H18V9Z" fill="#0045AD"/>
<path d="M18 15H14V17H18V15Z" fill="#0045AD"/>
</svg>
