<svg width="18" height="22" viewBox="0 0 18 22" fill="none" xmlns="http://www.w3.org/2000/svg">
<path d="M14.3983 0.500052C14.18 0.500052 13.2265 0.519435 12.3089 1.16124C10.8531 2.1778 10.6793 3.92446 10.5946 4.77733C10.5268 5.45144 10.4272 6.45938 11.0269 6.94397C11.243 7.11842 11.599 7.25841 11.9953 7.25195C13.5613 7.23257 13.0336 5.69912 13.1036 4.72133C13.165 3.84693 13.2519 2.98544 14.3241 2.95529C15.5002 2.92514 15.6676 3.806 15.6655 4.77733C15.657 8.92754 15.6591 13.0777 15.6697 17.228C15.6719 18.1971 15.479 19.1211 14.3411 19.078C13.2053 19.0349 13.1057 18.0744 13.1184 17.1267C13.1375 15.6816 13.1565 14.2321 13.0993 12.7892C13.0188 10.7905 11.866 9.46812 9.99701 9.12353C7.23799 8.61525 7.23799 8.61525 7.23588 5.78742C7.23588 5.34806 7.24435 4.90655 7.23164 4.4672C7.16383 2.11103 5.70591 0.512974 3.63771 0.521589C1.52925 0.530204 0.0734524 2.08519 0.0353093 4.44566C0.00140435 6.64675 0.0289521 8.84785 0.0289521 11.0489C0.0310712 11.0489 0.0331903 11.0489 0.0353093 11.0489C0.0353093 13.375 -0.0579293 15.7074 0.058619 18.027C0.204834 20.941 3.2923 22.4529 5.63387 20.8462C7.03456 19.8856 7.83557 16.9178 7.11085 15.3887C6.86928 14.8783 6.46242 14.6047 5.92206 14.6866C5.38594 14.7663 5.01722 15.1367 4.96424 15.6924C4.89855 16.3772 4.93034 17.0729 4.88796 17.7621C4.83922 18.5654 4.40693 19.1038 3.6144 19.0909C2.83035 19.0758 2.37263 18.5396 2.37051 17.7298C2.3578 13.2651 2.3578 8.80047 2.36839 4.33582C2.37051 3.54541 2.73499 2.96821 3.56566 2.94883C4.48957 2.92729 4.87736 3.52387 4.8922 4.40474C4.90491 5.28561 4.89219 6.16432 4.90067 7.04519C4.9261 9.95486 6.02377 11.2471 8.82093 11.4108C10.2216 11.4926 10.8595 12.0332 10.7917 13.4848C10.7323 14.7404 10.7705 16.0003 10.7832 17.2581C10.8086 19.834 12.1351 21.432 14.2817 21.4923C16.494 21.5548 17.971 19.9115 17.9859 17.2926C18.0071 13.0799 18.0028 8.86724 17.9837 4.65241C17.971 2.15195 16.511 0.489283 14.3983 0.500052Z" fill="#0045AD"/>
</svg>
