<svg width="24" height="24" viewBox="0 0 24 24" fill="none" xmlns="http://www.w3.org/2000/svg">
<path fill-rule="evenodd" clip-rule="evenodd" d="M17 5H6.06667V7H6.26667C6.81895 7 7.26667 7.44772 7.26667 8C7.26667 8.55228 6.81895 9 6.26667 9H6.06667V11H6.26667C6.81895 11 7.26667 11.4477 7.26667 12C7.26667 12.5523 6.81895 13 6.26667 13H6.06667V15H6.26667C6.81895 15 7.26667 15.4477 7.26667 16C7.26667 16.5523 6.81895 17 6.26667 17H6.06667V19H11.5333V21H6.06667C4.9621 21 4.06667 20.1046 4.06667 19V17H4C3.44772 17 3 16.5523 3 16C3 15.4477 3.44772 15 4 15H4.06667V13H4C3.44772 13 3 12.5523 3 12C3 11.4477 3.44772 11 4 11H4.06667V9H4C3.44772 9 3 8.55228 3 8C3 7.44772 3.44772 7 4 7H4.06667V5C4.06667 3.89543 4.9621 3 6.06667 3H17C18.1046 3 19 3.89543 19 5V10.4116H17V5Z" fill="#0045AD"/>
<path d="M13 16.5L16 19.5L21.5 12" stroke="#0045AD" stroke-width="2"/>
</svg>
