<svg width="24" height="24" viewBox="0 0 24 24" fill="none" xmlns="http://www.w3.org/2000/svg">
<path d="M13.3968 9.09731L9.07587 15.9029H10.6036L14.9245 9.09731H13.3968Z" fill="#0045AD"/>
<path fill-rule="evenodd" clip-rule="evenodd" d="M8.82277 12.5779C9.07587 12.7205 9.36213 12.7918 9.68152 12.7918C10.0009 12.7918 10.2872 12.7205 10.5403 12.5779C10.7934 12.4288 10.9923 12.2117 11.1369 11.9265C11.2875 11.6413 11.3629 11.2978 11.3629 10.8959C11.3629 10.4941 11.2875 10.1538 11.1369 9.87509C10.9923 9.5899 10.7934 9.37277 10.5403 9.2237C10.2872 9.07462 10.0009 9.00009 9.68152 9.00009C9.36213 9.00009 9.07587 9.07462 8.82277 9.2237C8.56966 9.37277 8.36778 9.5899 8.21712 9.87509C8.07248 10.1538 8.00017 10.4941 8.00017 10.8959C8.00017 11.2978 8.07248 11.6413 8.21712 11.9265C8.36778 12.2117 8.56966 12.4288 8.82277 12.5779ZM9.95271 11.5668C9.87437 11.6834 9.78397 11.7418 9.68152 11.7418C9.5851 11.7418 9.49471 11.6834 9.41034 11.5668C9.32597 11.4436 9.28378 11.22 9.28378 10.8959C9.28378 10.5718 9.32597 10.3515 9.41034 10.2348C9.49471 10.1117 9.5851 10.0501 9.68152 10.0501C9.78397 10.0501 9.87437 10.1117 9.95271 10.2348C10.0371 10.3515 10.0793 10.5718 10.0793 10.8959C10.0793 11.22 10.0371 11.4436 9.95271 11.5668Z" fill="#0045AD"/>
<path fill-rule="evenodd" clip-rule="evenodd" d="M13.4601 15.7862C13.7132 15.9288 13.9994 16.0001 14.3188 16.0001C14.6382 16.0001 14.9245 15.9288 15.1776 15.7862C15.4307 15.6371 15.6295 15.42 15.7742 15.1348C15.9248 14.8496 16.0002 14.5061 16.0002 14.1043C16.0002 13.7024 15.9248 13.3621 15.7742 13.0834C15.6295 12.7982 15.4307 12.5811 15.1776 12.432C14.9245 12.283 14.6382 12.2084 14.3188 12.2084C13.9994 12.2084 13.7132 12.283 13.4601 12.432C13.2069 12.5811 13.0051 12.7982 12.8544 13.0834C12.7098 13.3621 12.6375 13.7024 12.6375 14.1043C12.6375 14.5061 12.7098 14.8496 12.8544 15.1348C13.0051 15.42 13.2069 15.6371 13.4601 15.7862ZM14.59 14.7751C14.5117 14.8918 14.4213 14.9501 14.3188 14.9501C14.2224 14.9501 14.132 14.8918 14.0476 14.7751C13.9633 14.6519 13.9211 14.4283 13.9211 14.1043C13.9211 13.7802 13.9633 13.5598 14.0476 13.4431C14.132 13.32 14.2224 13.2584 14.3188 13.2584C14.4213 13.2584 14.5117 13.32 14.59 13.4431C14.6744 13.5598 14.7166 13.7802 14.7166 14.1043C14.7166 14.4283 14.6744 14.6519 14.59 14.7751Z" fill="#0045AD"/>
<path fill-rule="evenodd" clip-rule="evenodd" d="M11.3512 1.55363C11.7251 1.23473 12.2753 1.23473 12.6491 1.55363L15.1137 3.65582L18.3377 3.65407C18.8244 3.6538 19.2406 4.00395 19.3236 4.4835L19.8839 7.72022L22.3696 9.8359C22.7354 10.1472 22.8282 10.6747 22.5905 11.0922L20.9652 13.9472L21.5304 17.1919C21.6132 17.6675 21.3443 18.1345 20.8913 18.3016L17.8517 19.4232L16.2401 22.261C15.9981 22.6872 15.483 22.8752 15.0234 22.705L12.0002 21.5858L8.97696 22.705C8.51737 22.8752 8.00221 22.6872 7.76021 22.261L6.14868 19.4232L3.10899 18.3016C2.65599 18.1345 2.38712 17.6675 2.46998 17.1919L3.03517 13.9472L1.40981 11.0922C1.17216 10.6747 1.26491 10.1472 1.63072 9.8359L4.11648 7.72022L4.67677 4.4835C4.75978 4.00395 5.17598 3.6538 5.66266 3.65407L8.88666 3.65582L11.3512 1.55363ZM14.377 5.65622L17.4965 5.65453L18.0366 8.7743L20.4428 10.8223L18.8715 13.5824L19.417 16.7138L16.4735 17.7999L14.9207 20.5343L12.0002 19.4532L9.07966 20.5343L7.52683 17.7999L4.58336 16.7139L5.12884 13.5824L3.55755 10.8223L5.96376 8.7743L6.5038 5.65453L9.6233 5.65622L12.0002 3.62882L14.377 5.65622Z" fill="#0045AD"/>
</svg>
