<svg width="24" height="24" viewBox="0 0 24 24" fill="none" xmlns="http://www.w3.org/2000/svg">
<path fill-rule="evenodd" clip-rule="evenodd" d="M12.5 5C13.9546 5 15.2117 5.20726 16.1002 5.5C15.2117 5.79274 13.9546 6 12.5 6C11.0454 6 9.78833 5.79274 8.89977 5.5C9.78833 5.20726 11.0454 5 12.5 5ZM17 7.30401C15.8321 7.73508 14.2465 8 12.5 8C10.7535 8 9.16789 7.73508 8 7.30401V9.73972C8.0793 9.78946 8.1902 9.84996 8.3411 9.91499C8.94806 10.1766 10.176 10.5 12.5 10.5C14.824 10.5 16.0519 10.1766 16.6589 9.91499C16.8098 9.84996 16.9207 9.78946 17 9.73972V7.30401ZM19 5.5V10V10.1667V10.4093V14.6667V14.9093L18.9532 15H19V19.6667V19.9093L18.8888 20.125L18 19.6667C18.8888 20.125 18.8882 20.1262 18.8875 20.1274L18.8862 20.13L18.8835 20.1351L18.8778 20.1457L18.8652 20.1682C18.8563 20.1838 18.8462 20.2005 18.8349 20.2183C18.8123 20.2538 18.785 20.2932 18.7521 20.3358C18.686 20.4211 18.5987 20.5177 18.4843 20.6201C18.255 20.8254 17.9242 21.0475 17.4505 21.2517C16.5106 21.6568 14.9885 22 12.5 22C10.0115 22 8.48944 21.6568 7.54953 21.2517C7.07576 21.0475 6.74502 20.8254 6.51567 20.6201C6.40128 20.5177 6.31395 20.4211 6.24793 20.3358C6.215 20.2932 6.18765 20.2538 6.16507 20.2183C6.15379 20.2005 6.14373 20.1838 6.13478 20.1682L6.12218 20.1457L6.11649 20.1351L6.1138 20.13L6.11248 20.1274C6.11184 20.1262 6.1112 20.125 7 19.6667L6.1112 20.125L6 19.9093V19.6667V15H6.04677L6 14.9093V14.6667V10.4093V10.1667V10V5.5C6 4.11929 8.91015 3 12.5 3C16.0899 3 19 4.11929 19 5.5ZM8 11.9244V14.2397C8.0793 14.2895 8.1902 14.35 8.3411 14.415C8.94806 14.6766 10.176 15 12.5 15C14.824 15 16.0519 14.6766 16.6589 14.415C16.8098 14.35 16.9207 14.2895 17 14.2397V11.9244C16.0451 12.2497 14.6249 12.5 12.5 12.5C10.3751 12.5 8.95485 12.2497 8 11.9244ZM6.35354 15H6.35453C6.48581 14.932 6.68816 14.8275 7 14.6667L6.35354 15ZM8 16.4244V19.2397C8.0793 19.2895 8.1902 19.35 8.3411 19.415C8.94806 19.6766 10.176 20 12.5 20C14.824 20 16.0519 19.6766 16.6589 19.415C16.8098 19.35 16.9207 19.2895 17 19.2397V16.4244C16.0451 16.7497 14.6249 17 12.5 17C10.3751 17 8.95485 16.7497 8 16.4244ZM18.6455 15H18.6465L18 14.6667C18.3118 14.8275 18.5142 14.932 18.6455 15Z" fill="#0045AD"/>
</svg>
