<svg width="24" height="24" viewBox="0 0 24 24" fill="none" xmlns="http://www.w3.org/2000/svg">
<path fill-rule="evenodd" clip-rule="evenodd" d="M7 1C6.44772 1 6 1.44772 6 2V3C3.79086 3 2 4.79086 2 7V17C2 19.2091 3.79086 21 6 21H11C11.5523 21 12 20.5523 12 20C12 19.4477 11.5523 19 11 19H6C4.89543 19 4 18.1046 4 17V7C4 5.89543 4.89543 5 6 5V6C6 6.55228 6.44772 7 7 7C7.55228 7 8 6.55228 8 6V5H11V6C11 6.55228 11.4477 7 12 7C12.5523 7 13 6.55228 13 6V5H16V6C16 6.55228 16.4477 7 17 7C17.5523 7 18 6.55228 18 6L18 5C19.1046 5 20 5.89543 20 7V10.9647C20 11.517 20.4477 11.9647 21 11.9647C21.5523 11.9647 22 11.517 22 10.9647V7C22 4.79086 20.2091 3 18 3L18 2C18 1.44772 17.5523 1 17 1C16.4477 1 16 1.44772 16 2V3H13V2C13 1.44772 12.5523 1 12 1C11.4477 1 11 1.44772 11 2V3H8V2C8 1.44772 7.55228 1 7 1Z" fill="#0045AD"/>
<path fill-rule="evenodd" clip-rule="evenodd" d="M21.5 18C21.5 19.933 19.933 21.5 18 21.5C16.067 21.5 14.5 19.933 14.5 18C14.5 16.067 16.067 14.5 18 14.5C19.933 14.5 21.5 16.067 21.5 18ZM23 18C23 20.7614 20.7614 23 18 23C15.2386 23 13 20.7614 13 18C13 15.2386 15.2386 13 18 13C20.7614 13 23 15.2386 23 18ZM18.7499 16C18.7499 15.5858 18.4141 15.25 17.9999 15.25C17.5857 15.25 17.2499 15.5858 17.2499 16V18.1667C17.2499 18.8018 17.7648 19.3167 18.3999 19.3167H19.9999C20.4141 19.3167 20.7499 18.9809 20.7499 18.5667C20.7499 18.1525 20.4141 17.8167 19.9999 17.8167H18.7499V16Z" fill="#0045AD"/>
</svg>
