<svg width="24" height="24" viewBox="0 0 24 24" fill="none" xmlns="http://www.w3.org/2000/svg">
<path fill-rule="evenodd" clip-rule="evenodd" d="M13 3H11V6.78947C11.3244 6.73043 11.6587 6.6996 12.0001 6.6996C12.3415 6.6996 12.6757 6.73042 13 6.78943V3ZM6.59538 4.57918L9.36639 7.36309C8.71086 7.71715 8.13467 8.19926 7.67133 8.77592L5.0375 6.12984L6.59538 4.57918ZM3 11H6.59134C6.49893 11.4016 6.4501 11.8199 6.4501 12.2496C6.4501 12.5041 6.46723 12.7546 6.5004 13H3V11ZM4.88672 18.1914L7.58512 15.6132C8.01162 16.1721 8.54186 16.6477 9.14711 17.0111L6.33041 19.7024L4.88672 18.1914ZM11 22V17.7097C11.3244 17.7688 11.6587 17.7996 12.0001 17.7996C12.3415 17.7996 12.6757 17.7688 13 17.7098V22H11ZM18.0886 19.2416L15.4537 16.5945C16.0326 16.1337 16.5173 15.5597 16.8743 14.9059L19.6465 17.691L18.0886 19.2416ZM21 13H17.4998C17.533 12.7546 17.5501 12.5041 17.5501 12.2496C17.5501 11.8199 17.5013 11.4016 17.4089 11H21V13ZM19.7064 6.92216L16.8868 9.61617C16.5507 8.99389 16.0993 8.44309 15.5611 7.99244L18.2627 5.41118L19.7064 6.92216ZM12 15.3333C13.7029 15.3333 15.0833 13.9529 15.0833 12.25C15.0833 10.5471 13.7029 9.16667 12 9.16667C10.2971 9.16667 8.91667 10.5471 8.91667 12.25C8.91667 13.9529 10.2971 15.3333 12 15.3333Z" fill="#0045AD"/>
</svg>
