<svg width="24" height="24" viewBox="0 0 24 24" fill="none" xmlns="http://www.w3.org/2000/svg">
<path fill-rule="evenodd" clip-rule="evenodd" d="M18.3406 19.3406C18.744 19.744 19.4029 19.7471 19.7625 19.3042C20.7851 18.0452 21.4894 16.5518 21.8079 14.9509C22.1937 13.0111 21.9957 11.0004 21.2388 9.17317C20.4819 7.3459 19.2002 5.78412 17.5557 4.6853C15.9112 3.58649 13.9778 3 12 3C10.0222 3 8.08879 3.58649 6.4443 4.6853C4.79981 5.78412 3.51809 7.3459 2.76121 9.17317C2.00433 11.0004 1.8063 13.0111 2.19215 14.9509C2.5106 16.5518 3.21493 18.0452 4.23746 19.3042C4.59712 19.7471 5.25596 19.744 5.65937 19.3406C6.06278 18.9372 6.05652 18.2867 5.7089 17.8343C4.97933 16.8849 4.47141 15.779 4.22856 14.5979L5.50096 14.2053C6.0287 14.0425 6.32453 13.4827 6.16172 12.955C5.9989 12.4272 5.4391 12.1314 4.91136 12.2942L4.0787 12.5511C4.12885 11.6663 4.32716 10.7913 4.66993 9.96378C4.93449 9.32509 5.27986 8.72728 5.69506 8.18375L6.52387 8.85933C6.95196 9.20827 7.58186 9.14411 7.93081 8.71603C8.27975 8.28794 8.21559 7.65803 7.7875 7.30909L7.10702 6.75442C7.26385 6.63155 7.42563 6.51434 7.5921 6.40311C8.61782 5.71775 9.7852 5.2836 11 5.12926V6C11 6.55228 11.4477 7 12 7C12.5523 7 13 6.55228 13 6V5.12925C14.2148 5.2836 15.3822 5.71775 16.4079 6.40311C16.6688 6.57742 16.9182 6.76642 17.155 6.96885L16.7219 7.38413C16.3232 7.76635 16.3099 8.39937 16.6921 8.79803C17.0743 9.19669 17.7073 9.21002 18.106 8.8278L18.4998 8.45019C18.8292 8.92066 19.1081 9.42783 19.3301 9.96379C19.6454 10.725 19.8385 11.5264 19.9064 12.3386L19.4283 12.227C18.8905 12.1015 18.3527 12.4357 18.2272 12.9735C18.1017 13.5114 18.4359 14.0491 18.9737 14.1747L19.8147 14.371C19.8043 14.43 19.7933 14.489 19.7816 14.5478C19.5429 15.7478 19.031 16.8715 18.2911 17.8343C17.9435 18.2867 17.9372 18.9372 18.3406 19.3406ZM15.6285 10.1981L11.1594 12.5816C10.1009 13.1462 9.91211 14.5846 10.7891 15.4032C11.6433 16.2004 13.0241 15.9519 13.5466 14.9068L15.8117 10.3765C15.8702 10.2596 15.7439 10.1366 15.6285 10.1981Z" fill="#0045AD"/>
</svg>
