<svg width="24" height="24" viewBox="0 0 24 24" fill="none" xmlns="http://www.w3.org/2000/svg">
<circle cx="12" cy="12" r="9" stroke="#0045AD" stroke-width="2"/>
<path d="M11.5245 7.46353C11.6741 7.00287 12.3259 7.00287 12.4755 7.46353L13.2348 9.80041C13.3018 10.0064 13.4937 10.1459 13.7104 10.1459H16.1675C16.6519 10.1459 16.8532 10.7657 16.4614 11.0504L14.4735 12.4947C14.2983 12.622 14.2249 12.8477 14.2919 13.0537L15.0512 15.3906C15.2009 15.8512 14.6736 16.2343 14.2818 15.9496L12.2939 14.5053C12.1186 14.378 11.8814 14.378 11.7061 14.5053L9.71824 15.9496C9.32638 16.2343 8.79914 15.8512 8.94882 15.3906L9.70812 13.0537C9.77505 12.8477 9.70172 12.622 9.52648 12.4947L7.53861 11.0504C7.14675 10.7657 7.34814 10.1459 7.8325 10.1459H10.2896C10.5063 10.1459 10.6982 10.0064 10.7652 9.80041L11.5245 7.46353Z" fill="#0045AD"/>
</svg>
