<svg width="24" height="24" viewBox="0 0 24 24" fill="none" xmlns="http://www.w3.org/2000/svg">
<path fill-rule="evenodd" clip-rule="evenodd" d="M4.21999 10.0125C4.24438 8.72478 4.62976 6.90059 5.70425 5.37834C6.82286 3.79359 8.71092 2.5 11.8416 2.5C14.9732 2.5 16.9107 3.79489 18.087 5.38712C19.2095 6.90634 19.6562 8.72327 19.7264 10.0099C19.4296 9.99625 19.1316 9.99976 18.8792 10.0027C18.7831 10.0039 18.6935 10.0049 18.6132 10.0049H18V16.8455L18.4836 16.929C19.2138 17.0551 20.3297 17.0528 21.2893 16.5889C22.2964 16.1021 23 15.1722 23 13.6635C23 11.8728 22.3983 10.8617 21.366 10.3692C21.1595 10.2707 20.9461 10.1985 20.733 10.1456C20.6886 8.69351 20.208 6.57501 18.8913 4.7929C17.5311 2.95179 15.2982 1.5 11.8416 1.5C8.384 1.5 6.19211 2.95309 4.88727 4.80167C3.62724 6.58678 3.2161 8.70626 3.21876 10.1579C3.02176 10.2095 2.82497 10.2781 2.63397 10.3692C1.60173 10.8617 1 11.8728 1 13.6635C1 15.1722 1.7036 16.1021 2.71072 16.5889C3.67032 17.0528 4.78623 17.0551 5.51645 16.929L6 16.8455V10.0049H5.38679C5.30652 10.0049 5.21707 10.0039 5.12102 10.0027C4.8534 9.99958 4.53439 9.99582 4.21999 10.0125ZM3.26309 11.2098C2.77619 11.4421 2.22642 12.0156 2.22642 13.6635C2.22642 14.9058 2.78068 15.4781 3.34588 15.7513C3.78965 15.9658 4.31639 16.0331 4.77359 16.0193V10.9792C4.59263 10.9787 4.41357 10.9815 4.22827 10.994C3.85503 11.0191 3.53224 11.0814 3.26309 11.2098ZM20.7369 11.2098C21.2238 11.4421 21.7736 12.0156 21.7736 13.6635C21.7736 14.9058 21.2193 15.4781 20.6541 15.7513C20.2103 15.9658 19.6836 16.0331 19.2264 16.0193V10.9792C19.4074 10.9787 19.5864 10.9815 19.7717 10.994C20.145 11.0191 20.4678 11.0814 20.7369 11.2098Z" fill="#0045AD" stroke="#0045AD"/>
<path fill-rule="evenodd" clip-rule="evenodd" d="M17.6018 20.1186C16.5657 20.7696 15.4174 21.0772 14.6603 21.1632L14.5474 20.1696C15.1806 20.0977 16.1804 19.8307 17.0698 19.2719C17.9524 18.7173 18.6913 17.9003 18.9089 16.7266L19.8921 16.9089C19.6092 18.4349 18.6449 19.4632 17.6018 20.1186Z" fill="#0045AD" stroke="#0045AD"/>
<rect x="8" y="19" width="7" height="4" rx="2" fill="#0045AD"/>
</svg>
