<svg width="24" height="24" viewBox="0 0 24 24" fill="none" xmlns="http://www.w3.org/2000/svg">
<path fill-rule="evenodd" clip-rule="evenodd" d="M13.45 8.35H18.8V10H20.8V8.35V7.30731V7.3L18.3118 4.81177L14.5112 1H14.5H13.45H6C4.89543 1 4 1.89543 4 3V20C4 21.1046 4.89543 22 6 22H9V20H6V3H13.45V8.35Z" fill="#0045AD"/>
<circle cx="15.5" cy="16.5" r="5.5" stroke="#0045AD" stroke-width="2"/>
<path d="M15.2901 20V13H15.7963V20H15.2901ZM16.6327 15.3105C16.608 15.09 16.5021 14.9186 16.3148 14.7965C16.1276 14.6743 15.8735 14.6133 15.5525 14.6133C15.3344 14.6133 15.1502 14.6406 15 14.6953C14.8498 14.7482 14.7346 14.822 14.6543 14.9168C14.5761 15.0116 14.537 15.1191 14.537 15.2395C14.5329 15.3397 14.5566 15.4272 14.608 15.502C14.6615 15.5767 14.7346 15.6414 14.8272 15.6961C14.9198 15.749 15.0267 15.7954 15.1481 15.8355C15.2695 15.8738 15.3992 15.9066 15.537 15.934L16.1049 16.0543C16.3807 16.109 16.6337 16.1819 16.8642 16.273C17.0947 16.3642 17.2942 16.4763 17.463 16.6094C17.6317 16.7424 17.7623 16.8992 17.8549 17.0797C17.9496 17.2602 17.9979 17.4671 18 17.7004C17.9979 18.0431 17.8992 18.3402 17.7037 18.5918C17.5103 18.8415 17.2305 19.0357 16.8642 19.1742C16.5 19.3109 16.0607 19.3793 15.5463 19.3793C15.036 19.3793 14.5916 19.31 14.213 19.1715C13.8364 19.0329 13.5422 18.8279 13.3302 18.5562C13.1204 18.2828 13.0103 17.9447 13 17.5418H14.2932C14.3076 17.7296 14.3683 17.8863 14.4753 18.0121C14.5844 18.1361 14.7294 18.2299 14.9105 18.2938C15.0936 18.3557 15.3004 18.3867 15.5309 18.3867C15.7572 18.3867 15.9537 18.3576 16.1204 18.2992C16.2891 18.2409 16.4198 18.1598 16.5123 18.0559C16.6049 17.952 16.6512 17.8326 16.6512 17.6977C16.6512 17.5719 16.6091 17.4661 16.5247 17.3805C16.4424 17.2948 16.321 17.2219 16.1605 17.1617C16.0021 17.1016 15.8076 17.0469 15.5772 16.9977L14.8889 16.8445C14.356 16.7297 13.9352 16.5501 13.6265 16.3059C13.3179 16.0616 13.1646 15.7326 13.1667 15.3187C13.1646 14.9797 13.2665 14.6835 13.4722 14.4301C13.68 14.1767 13.965 13.9789 14.3272 13.8367C14.6893 13.6945 15.1008 13.6234 15.5617 13.6234C16.0309 13.6234 16.4403 13.6945 16.7901 13.8367C17.142 13.9789 17.4156 14.1767 17.6111 14.4301C17.8066 14.6835 17.9074 14.977 17.9136 15.3105H16.6327Z" fill="#0045AD"/>
</svg>
