<svg width="24" height="24" viewBox="0 0 24 24" fill="none" xmlns="http://www.w3.org/2000/svg">
<circle cx="10" cy="10" r="2" fill="#0045AD"/>
<circle cx="10" cy="15" r="2" fill="#0045AD"/>
<circle cx="15" cy="10" r="2" fill="#0045AD"/>
<circle cx="15" cy="15" r="2" fill="#0045AD"/>
<mask id="path-5-inside-1_192_1814" fill="white">
<path d="M22 12.5C22 17.7467 17.7467 22 12.5 22C7.25329 22 3 17.7467 3 12.5C3 7.25329 7.25329 3 12.5 3C17.7467 3 22 7.25329 22 12.5ZM5.02982 12.5C5.02982 16.6257 8.37433 19.9702 12.5 19.9702C16.6257 19.9702 19.9702 16.6257 19.9702 12.5C19.9702 8.37433 16.6257 5.02982 12.5 5.02982C8.37433 5.02982 5.02982 8.37433 5.02982 12.5Z"/>
</mask>
<path d="M22 12.5C22 17.7467 17.7467 22 12.5 22C7.25329 22 3 17.7467 3 12.5C3 7.25329 7.25329 3 12.5 3C17.7467 3 22 7.25329 22 12.5ZM5.02982 12.5C5.02982 16.6257 8.37433 19.9702 12.5 19.9702C16.6257 19.9702 19.9702 16.6257 19.9702 12.5C19.9702 8.37433 16.6257 5.02982 12.5 5.02982C8.37433 5.02982 5.02982 8.37433 5.02982 12.5Z" stroke="#0045AD" stroke-width="4" mask="url(#path-5-inside-1_192_1814)"/>
</svg>
