<svg width="24" height="24" viewBox="0 0 24 24" fill="none" xmlns="http://www.w3.org/2000/svg">
<path d="M15 7C15 8.65685 13.6569 10 12 10C10.3431 10 9 8.65685 9 7C9 5.34315 10.3431 4 12 4C13.6569 4 15 5.34315 15 7ZM20 16.5C20 17.2193 19.5175 18.0684 18.1019 18.7914C16.6949 19.51 14.5265 20 11.64 20C8.74883 20 6.7857 19.5083 5.5822 18.8154C4.41628 18.1441 4 17.3192 4 16.5C4 15.9032 4.13134 15.4339 4.36432 15.053C4.59818 14.6706 4.97198 14.3159 5.55172 14.0085C6.74599 13.3752 8.70542 13 11.64 13C14.6306 13 16.7857 13.1962 18.1761 13.7685C18.8451 14.0438 19.2786 14.384 19.5526 14.782C19.8247 15.1771 20 15.7169 20 16.5Z" stroke="#0045AD" stroke-width="2"/>
</svg>
