<svg width="24" height="24" viewBox="0 0 24 24" fill="none" xmlns="http://www.w3.org/2000/svg">
<g id="Verifys">
<path id="Vector 68" d="M8 11.5L11 14.5L16 8.5" stroke="#0045AD" stroke-width="2"/>
<g id="Ellipse 85">
<mask id="path-2-inside-1_197_1837" fill="white">
<path d="M22 12C22 17.5228 17.5228 22 12 22C6.47715 22 2 17.5228 2 12C2 6.47715 6.47715 2 12 2C17.5228 2 22 6.47715 22 12ZM4.13665 12C4.13665 16.3428 7.65719 19.8633 12 19.8633C16.3428 19.8633 19.8633 16.3428 19.8633 12C19.8633 7.65719 16.3428 4.13665 12 4.13665C7.65719 4.13665 4.13665 7.65719 4.13665 12Z"/>
</mask>
<path d="M22 12C22 17.5228 17.5228 22 12 22C6.47715 22 2 17.5228 2 12C2 6.47715 6.47715 2 12 2C17.5228 2 22 6.47715 22 12ZM4.13665 12C4.13665 16.3428 7.65719 19.8633 12 19.8633C16.3428 19.8633 19.8633 16.3428 19.8633 12C19.8633 7.65719 16.3428 4.13665 12 4.13665C7.65719 4.13665 4.13665 7.65719 4.13665 12Z" stroke="#0045AD" stroke-width="4" mask="url(#path-2-inside-1_197_1837)"/>
</g>
</g>
</svg>
