<svg width="24" height="24" viewBox="0 0 24 24" fill="none" xmlns="http://www.w3.org/2000/svg">
<g id="Version">
<path id="Vector" d="M11.8299 13.2007L12.9608 11.2993C13.0335 11.1814 13.0012 11.0321 12.8962 10.9457L11.7006 10.0343C11.7248 9.86143 11.741 9.68071 11.741 9.5C11.741 9.31929 11.7248 9.13857 11.7006 8.95786L12.8962 8.04643C13.0012 7.96 13.0335 7.81071 12.9608 7.69286L11.8299 5.79143C11.7572 5.67357 11.6117 5.62643 11.4825 5.67357L10.0769 6.22357C9.7861 6.00357 9.47105 5.82286 9.1237 5.68143L8.91367 4.22786C8.88943 4.10214 8.76826 4 8.63093 4H6.36907C6.23174 4 6.11057 4.10214 6.08633 4.23571L5.8763 5.68929C5.53702 5.83071 5.2139 6.01143 4.92309 6.23143L3.5175 5.68143C3.38825 5.63429 3.24285 5.68143 3.17014 5.79929L2.03921 7.70071C1.96651 7.81857 1.99882 7.96786 2.10383 8.05429L3.29939 8.96571C3.27516 9.13857 3.259 9.31929 3.259 9.5C3.259 9.68071 3.27516 9.86143 3.29939 10.0421L2.10383 10.9536C1.99882 11.04 1.96651 11.1893 2.03921 11.3071L3.17014 13.2086C3.24285 13.3264 3.38825 13.3736 3.5175 13.3264L4.92309 12.7764C5.2139 12.9964 5.52895 13.1771 5.8763 13.3186L6.08633 14.7721C6.11057 14.8979 6.23174 15 6.36907 15H8.63093C8.76826 15 8.88943 14.8979 8.91367 14.7643L9.1237 13.3107C9.46298 13.1693 9.7861 12.9886 10.0769 12.7686L11.4825 13.3186C11.6117 13.3657 11.7572 13.3186 11.8299 13.2007ZM7.5 11.0714C6.61141 11.0714 5.88438 10.3643 5.88438 9.5C5.88438 8.63571 6.61141 7.92857 7.5 7.92857C8.38859 7.92857 9.11562 8.63571 9.11562 9.5C9.11562 10.3643 8.38859 11.0714 7.5 11.0714Z" fill="#0045AD"/>
<path id="Vector_2" d="M21.9252 16.0625L21.0458 15.4018C21.0641 15.2768 21.0824 15.1429 21.0824 15.0089C21.0824 14.875 21.0733 14.7411 21.0458 14.6161L21.916 13.9554C21.9893 13.8929 22.0168 13.7857 21.9618 13.6964L21.1374 12.3125C21.0916 12.2232 20.9817 12.1964 20.8809 12.2232L19.8641 12.625C19.6534 12.4643 19.4244 12.3304 19.1679 12.2321L19.0122 11.1786C19.0031 11.0714 18.9114 11 18.8198 11H17.1802C17.0794 11 16.9878 11.0714 16.9786 11.1696L16.8229 12.2232C16.5756 12.3304 16.3374 12.4554 16.1267 12.6161L15.1099 12.2143C15.0183 12.1786 14.9084 12.2143 14.8534 12.3036L14.029 13.6875C13.9832 13.7768 13.9924 13.8839 14.0748 13.9464L14.945 14.6071C14.9267 14.7321 14.9176 14.8661 14.9176 15C14.9176 15.1339 14.9267 15.2679 14.945 15.3929L14.0748 16.0536C14.0015 16.1161 13.9741 16.2232 14.029 16.3125L14.8534 17.6964C14.8992 17.7857 15.0092 17.8125 15.1099 17.7857L16.1267 17.3839C16.3374 17.5446 16.5664 17.6786 16.8229 17.7768L16.9786 18.8304C16.9969 18.9286 17.0794 19 17.1802 19H18.8198C18.9206 19 19.0122 18.9286 19.0214 18.8304L19.1771 17.7768C19.4244 17.6696 19.6626 17.5446 19.8641 17.3839L20.8901 17.7857C20.9817 17.8214 21.0916 17.7857 21.1466 17.6964L21.971 16.3125C22.0259 16.2321 21.9985 16.125 21.9252 16.0625ZM17.9954 16.2054C17.3176 16.2054 16.7588 15.6696 16.7588 15C16.7588 14.3304 17.3084 13.7946 17.9954 13.7946C18.6824 13.7946 19.2321 14.3304 19.2321 15C19.2321 15.6696 18.6733 16.2054 17.9954 16.2054Z" fill="#0045AD"/>
</g>
</svg>
