<svg width="24" height="24" viewBox="0 0 24 24" fill="none" xmlns="http://www.w3.org/2000/svg">
<mask id="path-1-inside-1_198_1980" fill="white">
<path d="M22 12C22 17.5228 17.5228 22 12 22C6.47715 22 2 17.5228 2 12C2 6.47715 6.47715 2 12 2C17.5228 2 22 6.47715 22 12ZM4.13665 12C4.13665 16.3428 7.65719 19.8633 12 19.8633C16.3428 19.8633 19.8633 16.3428 19.8633 12C19.8633 7.65719 16.3428 4.13665 12 4.13665C7.65719 4.13665 4.13665 7.65719 4.13665 12Z"/>
</mask>
<path d="M22 12C22 17.5228 17.5228 22 12 22C6.47715 22 2 17.5228 2 12C2 6.47715 6.47715 2 12 2C17.5228 2 22 6.47715 22 12ZM4.13665 12C4.13665 16.3428 7.65719 19.8633 12 19.8633C16.3428 19.8633 19.8633 16.3428 19.8633 12C19.8633 7.65719 16.3428 4.13665 12 4.13665C7.65719 4.13665 4.13665 7.65719 4.13665 12Z" stroke="#0045AD" stroke-width="4" mask="url(#path-1-inside-1_198_1980)"/>
<rect x="11" y="3" width="2" height="18" fill="#0045AD"/>
<path d="M11 3H13C13 3 9 7.88094 9 12C9 16.1191 13 21 13 21H11C11 21 7 16.1191 7 12C7 7.88094 11 3 11 3Z" fill="#0045AD"/>
<path d="M13.1538 3H11C11 3 15 7.88094 15 12C15 16.1191 11 21 11 21H13.1538C13.1538 21 17 16.1191 17 12C17 7.88094 13.1538 3 13.1538 3Z" fill="#0045AD"/>
<rect x="3" y="11" width="18" height="2" fill="#0045AD"/>
</svg>
